<svg xmlns="http://www.w3.org/2000/svg" viewBox="0 0 100 100" fill="none">
  <defs>
    <linearGradient id="g" x1="20" y1="15" x2="80" y2="85" gradientUnits="userSpaceOnUse">
      <stop offset="0%" stop-color="#5eead4"/>
      <stop offset="45%" stop-color="#22d3ee"/>
      <stop offset="100%" stop-color="#3b82f6"/>
    </linearGradient>
    <linearGradient id="flame" x1="40" y1="25" x2="60" y2="70" gradientUnits="userSpaceOnUse">
      <stop offset="0%" stop-color="#ffffff" stop-opacity="0.45"/>
      <stop offset="100%" stop-color="#ffffff" stop-opacity="0.1"/>
    </linearGradient>
  </defs>
  
  <g transform="translate(50 52)">
    <path d="M-30 6
             C-30 -6 -20 -16 -8 -16
             C-8 -28 2 -38 14 -38
             C26 -38 36 -28 36 -16
             C48 -16 58 -6 58 6
             C58 18 48 28 36 28
             L-30 28
             C-42 28 -30 18 -30 6Z"
          fill="url(#g)"/>
    
    <g transform="translate(2 -6)">
      <path d="M0 26
               C0 16 -8 6 -8 -4
               C-8 -14 -2 -20 -2 -28
               C-2 -36 6 -40 10 -44
               C14 -40 22 -36 22 -28
               C22 -20 28 -14 28 -4
               C28 6 20 16 20 26
               C20 32 12 36 0 36
               C-12 36 -20 32 -20 26Z"
            fill="url(#flame)"/>
    </g>
  </g>
</svg>
